<?xml version="1.0" encoding="UTF-8"?>
<svg id="Layer_1" xmlns="http://www.w3.org/2000/svg" version="1.1" viewBox="0 0 240 56">
  <!-- Generator: Adobe Illustrator 29.0.1, SVG Export Plug-In . SVG Version: 2.1.0 Build 192)  -->
  <defs>
    <style>
      .st0 {
        fill: #fff;
      }

      .st1 {
        fill: #28a73e;
      }

      .st2 {
        fill: #0cf;
      }

      .st3 {
        fill: #0267b5;
      }

      .st4 {
        fill: #fdfdfd;
      }
    </style>
  </defs>
  <g>
    <path class="st4" d="M7.7,36.1C2.5,22.9,11.1,8.1,25,5.9c14.7-2.3,27.5,10,25.8,24.8-1.1,9.6-8.5,17.5-18,19.3-10.7,2-21.1-3.8-25.1-13.9ZM50,27.6c0-6.2-3-12.2-7.8-16.1-7.5-6.2-18.4-6.5-26.3-.7-5.3,3.9-8.6,10.2-8.7,16.9h7.5l4.3-12,5.9,15.6,1.7-3.6h23.4ZM17.2,31.6H7.5c.9,5.7,4.3,10.8,9,14,7.4,5,17.2,4.9,24.5-.3,4.5-3.3,7.7-8.2,8.6-13.8h-20.5l-4.3,8.4-5.9-13.4-1.8,5Z"/>
    <path class="st3" d="M50,27.6h-23.4l-1.7,3.6-5.9-15.6-4.3,12h-7.5c0-6.7,3.4-13,8.7-16.9,7.9-5.8,18.8-5.5,26.3.7,4.8,3.9,7.7,9.9,7.8,16.1Z"/>
    <path class="st1" d="M17.2,31.6l1.8-5,5.9,13.4,4.3-8.4h20.5c-.9,5.5-4.1,10.5-8.6,13.8-7.3,5.2-17.1,5.3-24.5.3-4.7-3.2-8.1-8.4-9-14h9.7Z"/>
  </g>
  <g>
    <rect class="st2" x="59.4" y="35.9" width="101.8" height=".5" rx=".2" ry=".2" transform="translate(-.2 .6) rotate(-.3)"/>
    <g>
      <path class="st2" d="M67.1,43c-.8.6-2.1.5-3,.5v3.3c-.8,0-1.6,0-2.4,0v-8.3h3.4c1.9,0,2.9.5,2.9,2.6s-.2,1.5-.9,2ZM64.4,39c-.1,0-.2,0-.3,0v3.8c.1,0,.2,0,.3,0,1.2,0,1.2-1,1.2-1.9s0-1.9-1.2-1.9Z"/>
      <path class="st2" d="M87.3,46.7v-3.9h-1.8v3.9c-.8,0-1.6,0-2.4,0v-8.3c.4,0,.8,0,1.2,0s.8,0,1.2,0v3.6h1.8v-3.6c.4,0,.8,0,1.2,0s.8,0,1.2,0v8.3c-.8,0-1.6,0-2.4,0Z"/>
      <path class="st2" d="M109.5,46.7l-.8-2.6h-2.3l-.8,2.6c-.3,0-.7,0-1,0l2.7-8.3c.3,0,.6,0,.9,0s.6,0,1,0l2.7,8.3c-.8,0-1.6,0-2.5,0ZM107.6,40.3l-.9,3.1h1.9l-.9-3.1Z"/>
      <path class="st2" d="M131.4,46.7l-1.7-3.7h-.3v3.7c-.8,0-1.6,0-2.4,0v-8.3h3.5c1.6,0,2.8.4,2.8,2.2s-.4,1.8-1.5,2.1l2.1,3.9c-.9,0-1.7,0-2.6,0ZM129.7,39c0,0-.2,0-.3,0v3.4c0,0,.2,0,.3,0,1.1,0,1.3-.8,1.3-1.7s-.1-1.8-1.2-1.8Z"/>
      <path class="st2" d="M155.2,46.7v-5.5l-1.8,5.5c-.6,0-1.2,0-1.7,0l-1.9-5.6v5.6c-.2,0-.6,0-.9,0v-8.3c.4,0,.8,0,1.2,0s.8,0,1.2,0l2,6,1.9-6c.4,0,.8,0,1.2,0s.8,0,1.2,0v8.3h-2.4Z"/>
    </g>
    <g>
      <path class="st0" d="M68.5,32.9h-9V11.5h9.2c3.8,0,6.7,1.3,6.7,5.5s-1,3.8-3.1,4.7c2.4,1.1,3.8,2.5,3.8,5.2,0,4.5-3.4,6-7.5,6ZM66.5,13c-.3,0-.5,0-.8,0v8.2c.3,0,.5,0,.8,0,2.6,0,2.8-1.9,2.8-4.1s-.2-4.1-2.8-4.1ZM66.4,22.7c-.2,0-.5,0-.7,0v8.6c.2,0,.5,0,.7,0,2.9,0,3.3-1.8,3.3-4.4s-.4-4.4-3.3-4.4Z"/>
      <path class="st0" d="M79.2,32.9V11.5c1,0,2.1,0,3.1,0s2.1,0,3.1,0v21.4c-2.1,0-4.1,0-6.2,0Z"/>
      <path class="st0" d="M105.4,29.9c-1.6,2.6-4.8,3.6-7.7,3.6s-3.8-.4-5.5-1.3c-3.5-2-3.7-6.3-3.7-9.9s0-5.4,1.4-7.7c1.6-2.7,4.8-3.6,7.8-3.6s3.8.4,5.5,1.3c3.5,2,3.7,6.2,3.7,9.9s-.1,5.4-1.5,7.7ZM100,14.8c-.3-1.2-.9-2.3-2.3-2.3s-1.4.4-1.8,1.1c-1,1.7-1,6.6-1,8.6s0,5.3.5,7.4c.3,1.2,1,2.3,2.3,2.3s1.4-.5,1.8-1.2c1-1.6,1-6.7,1-8.6s0-5.3-.5-7.5Z"/>
      <path class="st0" d="M119.1,13.5v19.4c-2.1,0-4.1,0-6.2,0V13.5h-5.1c0-.3,0-.6,0-.9s0-.7,0-1h16.5c0,.4,0,.7,0,1s0,.7,0,1h-5.2Z"/>
      <path class="st0" d="M126.6,32.9V11.5h13.5c0,.4,0,.7,0,1s0,.7,0,1h-7.3c0,0,0,7.1,0,7.1h6.1c0,.3,0,.6,0,.9s0,.7,0,1h-6.1c0,0,0,8.3,0,8.3h7.3c0,.2,0,.6,0,.9s0,.7,0,1h-13.5Z"/>
      <path class="st0" d="M154.5,32.9l-5.3-10.9v10.9c-2.1,0-4.1,0-6.2,0V11.5c1,0,2.1,0,3.1,0s2.1,0,3.1,0v8.7l7.7-8.7c.4,0,.9,0,1.3,0s.9,0,1.3,0l-6.2,6.8,7.8,14.5c-2.1,0-4.3,0-6.5,0Z"/>
    </g>
  </g>
</svg>