<?xml version="1.0" encoding="UTF-8"?>
<svg id="Layer_1" xmlns="http://www.w3.org/2000/svg" version="1.1" viewBox="0 0 200 40">
  <!-- Generator: Adobe Illustrator 29.0.1, SVG Export Plug-In . SVG Version: 2.1.0 Build 192)  -->
  <defs>
    <style>
      .st0 {
        fill: #fff;
      }

      .st1 {
        fill: #28a73e;
      }

      .st2 {
        fill: #0cf;
      }

      .st3 {
        fill: #0267b5;
      }

      .st4 {
        fill: #fdfdfd;
      }
    </style>
  </defs>
  <g>
    <path class="st4" d="M7.8,26.8C3.4,15.8,10.6,3.3,22.3,1.5c12.4-1.9,23.1,8.4,21.6,20.8-.9,8.1-7.1,14.7-15.1,16.2-9,1.7-17.7-3.2-21-11.6ZM43.2,19.7c0-5.2-2.5-10.2-6.5-13.5C30.4.9,21.3.7,14.7,5.5c-4.5,3.3-7.2,8.6-7.3,14.2h6.3l3.6-10,5,13,1.5-3h19.6ZM15.7,23.1H7.6c.8,4.8,3.6,9.1,7.6,11.8,6.2,4.2,14.4,4.1,20.5-.2,3.8-2.7,6.5-6.9,7.3-11.6h-17.2l-3.6,7-4.9-11.2-1.5,4.2Z"/>
    <path class="st3" d="M43.2,19.7h-19.6l-1.5,3-5-13-3.6,10h-6.3c0-5.6,2.8-10.9,7.3-14.2,6.6-4.9,15.7-4.6,22.1.6s6.4,8.3,6.5,13.5Z"/>
    <path class="st1" d="M15.7,23.1l1.5-4.2,4.9,11.2,3.6-7h17.2c-.8,4.6-3.4,8.8-7.3,11.6-6.1,4.4-14.3,4.4-20.5.2-4-2.7-6.8-7-7.6-11.8h8.1Z"/>
  </g>
  <g>
    <rect class="st2" x="51.1" y="26.6" width="85.4" height=".5" rx=".2" ry=".2" transform="translate(-.2 .5) rotate(-.3)"/>
    <g>
      <path class="st2" d="M57.6,32.6c-.7.5-1.8.4-2.5.4v2.7c-.7,0-1.3,0-2,0v-6.9h2.8c1.6,0,2.4.5,2.4,2.2s-.2,1.3-.7,1.7ZM55.3,29.2c0,0-.2,0-.3,0v3.2c0,0,.2,0,.3,0,1,0,1-.9,1-1.6s0-1.6-1-1.6Z"/>
      <path class="st2" d="M74.6,35.7v-3.3h-1.5v3.3c-.7,0-1.3,0-2,0v-6.9c.3,0,.7,0,1,0s.7,0,1,0v3.1h1.5v-3.1c.3,0,.7,0,1,0s.7,0,1,0v6.9c-.7,0-1.3,0-2,0Z"/>
      <path class="st2" d="M93.2,35.7l-.7-2.2h-1.9l-.7,2.2c-.3,0-.6,0-.8,0l2.3-6.9c.3,0,.5,0,.8,0s.5,0,.8,0l2.2,6.9c-.7,0-1.4,0-2.1,0ZM91.6,30.3l-.8,2.6h1.6l-.8-2.6Z"/>
      <path class="st2" d="M111.5,35.7l-1.4-3.1h-.2v3.1c-.7,0-1.3,0-2,0v-6.9h3c1.3,0,2.3.3,2.3,1.9s-.4,1.5-1.2,1.8l1.8,3.3c-.7,0-1.4,0-2.2,0ZM110.1,29.2c0,0-.2,0-.3,0v2.9c0,0,.2,0,.2,0,.9,0,1.1-.7,1.1-1.4s-.1-1.5-1-1.5Z"/>
      <path class="st2" d="M131.6,35.7v-4.6l-1.5,4.6c-.5,0-1,0-1.5,0l-1.6-4.7v4.7c-.2,0-.5,0-.7,0v-6.9c.3,0,.7,0,1,0s.7,0,1,0l1.7,5,1.6-5c.3,0,.7,0,1,0s.7,0,1,0v6.9h-2Z"/>
    </g>
    <g>
      <path class="st0" d="M58.8,24.1h-7.5V6.2h7.7c3.2,0,5.6,1.1,5.6,4.6s-.9,3.2-2.6,3.9c2,.9,3.2,2.1,3.2,4.4,0,3.8-2.9,5-6.3,5ZM57.1,7.4c-.2,0-.5,0-.7,0v6.9c.2,0,.4,0,.6,0,2.2,0,2.4-1.6,2.4-3.5s-.2-3.4-2.4-3.4ZM57,15.6c-.2,0-.4,0-.6,0v7.3c.2,0,.4,0,.6,0,2.4,0,2.8-1.5,2.8-3.7s-.3-3.7-2.8-3.7Z"/>
      <path class="st0" d="M67.7,24.1V6.2c.9,0,1.7,0,2.6,0s1.7,0,2.6,0v17.9c-1.7,0-3.5,0-5.2,0Z"/>
      <path class="st0" d="M89.8,21.6c-1.3,2.2-4.1,3-6.5,3s-3.2-.3-4.6-1.1c-2.9-1.7-3.1-5.3-3.1-8.3s0-4.6,1.2-6.4c1.3-2.2,4.1-3,6.5-3s3.2.3,4.6,1.1c2.9,1.7,3.1,5.2,3.1,8.3s-.1,4.6-1.2,6.4ZM85.2,8.9c-.2-1-.8-1.9-1.9-1.9s-1.2.3-1.5.9c-.9,1.5-.8,5.5-.8,7.3s0,4.4.4,6.2c.2,1,.8,2,1.9,2s1.2-.4,1.5-1c.8-1.4.8-5.6.8-7.2s0-4.5-.4-6.3Z"/>
      <path class="st0" d="M101.3,7.8v16.3c-1.7,0-3.5,0-5.2,0V7.8h-4.3c0-.2,0-.5,0-.8s0-.6,0-.9h13.8c0,.3,0,.6,0,.9s0,.6,0,.9h-4.3Z"/>
      <path class="st0" d="M107.6,24.1V6.2h11.3c0,.3,0,.6,0,.9s0,.6,0,.9h-6.1c0,0,0,6,0,6h5.2c0,.2,0,.5,0,.8s0,.6,0,.9h-5.2c0,0,0,7,0,7h6.1c0,.2,0,.5,0,.8s0,.6,0,.9h-11.3Z"/>
      <path class="st0" d="M130.9,24.1l-4.5-9.1v9.1c-1.7,0-3.5,0-5.2,0V6.2c.9,0,1.7,0,2.6,0s1.7,0,2.6,0v7.3l6.4-7.3c.3,0,.7,0,1.1,0s.7,0,1.1,0l-5.2,5.7,6.5,12.2c-1.8,0-3.6,0-5.4,0Z"/>
    </g>
  </g>
</svg>